<svg id="Capa_1" enable-background="new 0 0 512 512" height="512" viewBox="0 0 512 512" width="512" xmlns="http://www.w3.org/2000/svg"><g><path d="m494.5 98.5h-171.203c-5.907 0-11.055 4.205-12.239 10.001-1.17 5.732-6.277 9.893-12.143 9.893s-10.973-4.16-12.143-9.892c-1.182-5.795-6.329-10.002-12.239-10.002h-188.87c-4.143 0-7.5 3.357-7.5 7.5s3.357 7.5 7.5 7.5h186.899c3.312 11.642 14.082 19.894 26.353 19.894s23.042-8.252 26.353-19.894h169.232c1.379 0 2.5 1.121 2.5 2.5v194.702c0 4.143 3.357 7.5 7.5 7.5s7.5-3.357 7.5-7.5v-194.702c0-9.649-7.851-17.5-17.5-17.5z"/><path d="m504.5 338.202c-4.143 0-7.5 3.357-7.5 7.5v50.298c0 1.379-1.121 2.5-2.5 2.5h-169.232c-3.312-11.642-14.082-19.894-26.353-19.894s-23.041 8.25-26.353 19.894h-255.062c-1.379 0-2.5-1.121-2.5-2.5v-280c0-1.379 1.121-2.5 2.5-2.5h33.163c4.143 0 7.5-3.357 7.5-7.5s-3.357-7.5-7.5-7.5h-33.163c-9.649 0-17.5 7.851-17.5 17.5v280c0 9.649 7.851 17.5 17.5 17.5h257.033c5.91 0 11.058-4.207 12.239-10.001 1.17-5.732 6.277-9.893 12.143-9.893s10.973 4.16 12.144 9.895c1.184 5.794 6.331 9.999 12.238 9.999h171.203c9.649 0 17.5-7.851 17.5-17.5v-50.298c0-4.142-3.357-7.5-7.5-7.5z"/><path d="m366.355 176.298c-15.809 0-28.67 12.861-28.67 28.67 0 15.81 12.861 28.671 28.67 28.671s28.67-12.861 28.67-28.671c0-15.809-12.861-28.67-28.67-28.67zm0 42.341c-7.538 0-13.67-6.133-13.67-13.671s6.132-13.67 13.67-13.67 13.67 6.132 13.67 13.67-6.131 13.671-13.67 13.671z"/><path d="m408.39 307.032c0 15.809 12.861 28.67 28.67 28.67s28.67-12.861 28.67-28.67c0-15.81-12.861-28.671-28.67-28.671s-28.67 12.862-28.67 28.671zm42.339 0c0 7.538-6.132 13.67-13.67 13.67s-13.67-6.132-13.67-13.67 6.132-13.671 13.67-13.671 13.67 6.133 13.67 13.671z"/><path d="m455.154 190.259c-3.216-2.613-7.938-2.125-10.551 1.088l-97.43 119.843c-2.613 3.214-2.126 7.938 1.088 10.551 3.221 2.617 7.943 2.12 10.551-1.088l97.431-119.844c2.612-3.213 2.125-7.938-1.089-10.55z"/><path d="m298.915 163.558c4.143 0 7.5-3.357 7.5-7.5v-4c0-4.143-3.357-7.5-7.5-7.5s-7.5 3.357-7.5 7.5v4c0 4.142 3.357 7.5 7.5 7.5z"/><path d="m291.415 196.835c0 4.143 3.357 7.5 7.5 7.5s7.5-3.357 7.5-7.5v-4c0-4.143-3.357-7.5-7.5-7.5s-7.5 3.357-7.5 7.5z"/><path d="m291.415 237.611c0 4.143 3.357 7.5 7.5 7.5s7.5-3.357 7.5-7.5v-4c0-4.143-3.357-7.5-7.5-7.5s-7.5 3.357-7.5 7.5z"/><path d="m291.415 278.389c0 4.143 3.357 7.5 7.5 7.5s7.5-3.357 7.5-7.5v-4c0-4.143-3.357-7.5-7.5-7.5s-7.5 3.357-7.5 7.5z"/><path d="m291.415 319.165c0 4.143 3.357 7.5 7.5 7.5s7.5-3.357 7.5-7.5v-4c0-4.143-3.357-7.5-7.5-7.5s-7.5 3.357-7.5 7.5z"/><path d="m291.415 359.942c0 4.143 3.357 7.5 7.5 7.5s7.5-3.357 7.5-7.5v-4c0-4.143-3.357-7.5-7.5-7.5s-7.5 3.357-7.5 7.5z"/><path d="m213.283 164.1c-17.863-11.697-38.637-17.881-60.075-17.881-60.534 0-109.782 49.248-109.782 109.781s49.248 109.781 109.782 109.781c60.533 0 109.781-49.248 109.781-109.781 0-23.563-7.354-46.022-21.27-64.953-2.453-3.338-7.149-4.055-10.484-1.602-3.338 2.453-4.055 7.147-1.602 10.484 12.008 16.338 18.355 35.727 18.355 56.07 0 52.263-42.519 94.781-94.781 94.781s-94.781-42.517-94.781-94.78 42.52-94.781 94.782-94.781c18.512 0 36.443 5.335 51.856 15.43 3.464 2.269 8.113 1.3 10.384-2.165 2.27-3.466 1.3-8.115-2.165-10.384z"/><path d="m153.208 178.091c-43.19 0-77.91 35.234-77.91 77.909 0 44.075 37.001 77.909 77.91 77.909 41.412 0 77.909-34.979 77.909-77.909 0-42.609-34.658-77.909-77.909-77.909zm0 15c24.962 0 46.573 14.615 56.731 35.736-18.306-6.003-38.149-8.58-57.037-8.535-19.097.028-38.492 2.654-56.425 8.534 10.158-21.121 31.769-35.735 56.731-35.735zm62.909 62.909c0 2.367-.143 4.701-.399 7.001l-20.45 2.807 1.97-13.667c.562-3.911.319-7.85-.647-11.597 3.761.97 7.413 2.063 10.927 3.286 2.468.861 5.053 1.286 7.64 1.304.618 3.533.959 7.159.959 10.866zm-125.819 0c0-3.704.34-7.327.957-10.857 2.584-.018 5.166-.45 7.632-1.31 3.518-1.225 7.174-2.318 10.938-3.289-.965 3.748-1.209 7.687-.647 11.6l1.969 13.67-20.449-2.803c-.257-2.304-.4-4.641-.4-7.011zm38.041 14.938c-1.126-1.833-1.852-3.839-2.158-5.963l-2.156-14.967c-.601-4.188.569-8.273 3.296-11.502.871-1.031 2.152-1.697 3.607-1.898 6.419-.771 13.624-1.254 20.88-1.308 6.407-.047 12.804.223 19.214.831 3.727.355 6.307.284 8.072 2.374 2.727 3.229 3.897 7.313 3.298 11.499l-2.158 14.972c-.306 2.128-1.031 4.136-2.153 5.962-2.887 4.693-7.922 7.46-13.344 7.46h-23.058c-5.54 0-10.513-2.863-13.34-7.46zm-33.795 7.74 23.167 3.176c1.954 2.462 4.247 4.572 6.787 6.294l6.401 26.662c-16.644-6.336-29.918-19.539-36.355-36.132zm52.696 39.941-6.059-25.236c.166.003.33.016.497.016 0 0 23.392-.013 23.56-.016l-6.059 25.236c-4.094.386-7.841.387-11.939 0zm28.281-3.812 6.401-26.661c2.541-1.723 4.833-3.833 6.788-6.296l23.164-3.18c-6.436 16.596-19.708 29.8-36.353 36.137z"/></g></svg>