<svg id="Capa_1" enable-background="new 0 0 512 512" height="512" viewBox="0 0 512 512" width="512" xmlns="http://www.w3.org/2000/svg"><g><path d="m241.286 177.996v-29.103c0-7.224-5.876-13.1-13.1-13.1h-11.81l-31.173-105.075c-1.358-4.574-5.64-7.77-10.411-7.77h-32.041c-4.773 0-9.055 3.196-10.412 7.771l-31.173 105.074h-11.81c-7.223 0-13.1 5.876-13.1 13.1v29.103c0 7.223 5.876 13.1 13.1 13.1h138.829c7.225 0 13.101-5.877 13.101-13.1zm-107.187-100.468h49.345l5.543 18.685h-60.431zm11.743-39.58h25.86l7.292 24.58h-40.444zm-21.736 73.265h69.331l7.292 24.581h-83.916zm102.18 64.883h-135.029v-25.302h135.029z"/><path d="m422.643 433.75h-11.81l-31.172-105.072c-1.356-4.577-5.638-7.773-10.412-7.773h-32.041c-4.772 0-9.054 3.195-10.412 7.771l-31.172 105.074h-11.81c-7.224 0-13.1 5.877-13.1 13.1v29.103c0 7.224 5.876 13.1 13.1 13.1h81.189c4.142 0 7.5-3.357 7.5-7.5s-3.358-7.5-7.5-7.5h-79.29v-25.303h135.029v25.302h-20.739c-4.142 0-7.5 3.357-7.5 7.5s3.358 7.5 7.5 7.5h22.64c7.223 0 13.1-5.876 13.1-13.1v-29.102c0-7.223-5.877-13.1-13.1-13.1zm-94.087-58.266h49.345l5.543 18.685h-60.431zm11.742-39.58h25.86l7.292 24.58h-40.444zm-21.735 73.265h69.331l7.293 24.581h-83.917z"/><path d="m233.771 272.358c-2.929-2.927-7.678-2.929-10.606 0l-82.397 82.397c-6.206 6.206-9.623 14.457-9.623 23.232v126.513c0 4.143 3.358 7.5 7.5 7.5s7.5-3.357 7.5-7.5v-126.512c0-4.77 1.857-9.254 5.23-12.626l82.397-82.396c2.928-2.93 2.928-7.678-.001-10.608z"/><path d="m380.857 179.205v-92.776l22.73 8.599c5.081 1.925 10.711.312 14.005-4.011 3.294-4.321 3.358-10.176.158-14.567l-50.515-69.326c-3.299-4.527-8.404-7.124-14.006-7.124s-10.708 2.597-14.008 7.124l-50.514 69.325c-3.201 4.392-3.137 10.245.157 14.567s8.923 5.935 14.006 4.011l22.726-8.598v80.159c0 2.152-.838 4.176-2.361 5.698l-74.853 74.853c-2.929 2.93-2.929 7.678 0 10.607 2.929 2.928 7.678 2.928 10.606 0l74.853-74.853c4.355-4.356 6.754-10.146 6.754-16.306v-91.013c0-2.464-1.21-4.771-3.237-6.171-2.028-1.4-4.613-1.717-6.917-.844l-24.059 9.102 44.96-61.702c.608-.834 1.442-.959 1.885-.959s1.277.125 1.884.958l44.961 61.703-24.063-9.103c-2.305-.872-4.89-.557-6.917.844s-3.237 3.707-3.237 6.171v103.632c0 4.77-1.857 9.254-5.229 12.627l-182.468 182.48c-4.355 4.355-6.754 10.146-6.754 16.306v113.882c0 4.143 3.358 7.5 7.5 7.5s7.5-3.357 7.5-7.5v-113.883c0-2.152.838-4.177 2.36-5.699l182.47-182.48c6.205-6.207 9.623-14.458 9.623-23.233z"/></g></svg>