<?xml version="1.0" encoding="utf-8"?>
<!-- Generator: Adobe Illustrator 22.0.1, SVG Export Plug-In . SVG Version: 6.00 Build 0)  -->
<svg version="1.1" id="Capa_1" xmlns="http://www.w3.org/2000/svg" xmlns:xlink="http://www.w3.org/1999/xlink" x="0px" y="0px"
	 viewBox="0 0 34 34" style="enable-background:new 0 0 34 34;" xml:space="preserve">
<style type="text/css">
	.st0{fill:#FFFFFF;}
</style>
<g>
	<g>
		<path class="st0" d="M29.8,23.4l-3.7-3.8c-1.3-1.3-3.7-0.7-4.2,0.9c-0.4,1.3-1.8,1.8-2.9,1.6c-2.7-0.7-6.4-4.2-7.1-7.1
			c-0.4-1.3,0.4-2.6,1.6-2.9c1.8-0.5,2.4-2.9,0.9-4.2l-3.8-3.7C9.5,3.3,7.9,3.3,7,4.2L4.4,6.7C1.8,9.5,4.6,16.6,11,23
			s13.5,9.3,16.3,6.6l2.6-2.6C30.7,25.9,30.7,24.3,29.8,23.4z"/>
	</g>
</g>
</svg>
